# xmcd CD database file
#
# Track frame offsets:
#	150
#	20857
#	46027
#	70485
#
# Disc length: 1213 seconds
#
# Revision: 0
# Processed by: cddbd v1.5.1PL2 Copyright (c) Steve Scherf et al.
# Submitted via: CDex 1.51
#
DISCID=3204bb04
DTITLE=いとうかなこ - ETHEREAL ECHO
DYEAR=2006
DGENRE=Game
TTITLE0=RISE ON GREEN WINGS
TTITLE1=ANGEL'S LADDER
TTITLE2=Roar
TTITLE3=RISE ON GREEN WINGS (INST.ver.)
EXTD=YEAR: 2006
EXTT0=
EXTT1=
EXTT2=
EXTT3=
PLAYORDER=
